<?xml version="1.0" encoding="UTF-8" standalone="no"?>
<svg
   width="512"
   height="260"
   viewBox="0 0 512 260"
   version="1.1"
   id="svg1"
   sodipodi:docname="image_1716705698619_qraoaq.svg"
   inkscape:version="1.3.2 (1:1.3.2+202404261509+091e20ef0f)"
   xmlns:inkscape="http://www.inkscape.org/namespaces/inkscape"
   xmlns:sodipodi="http://sodipodi.sourceforge.net/DTD/sodipodi-0.dtd"
   xmlns="http://www.w3.org/2000/svg"
   xmlns:svg="http://www.w3.org/2000/svg">
  <defs
     id="defs1" />
  <sodipodi:namedview
     id="namedview1"
     pagecolor="#ffffff"
     bordercolor="#000000"
     borderopacity="0.25"
     inkscape:showpageshadow="2"
     inkscape:pageopacity="0.0"
     inkscape:pagecheckerboard="0"
     inkscape:deskcolor="#d1d1d1"
     inkscape:zoom="1.2089844"
     inkscape:cx="256"
     inkscape:cy="156.74313"
     inkscape:window-width="1536"
     inkscape:window-height="796"
     inkscape:window-x="0"
     inkscape:window-y="0"
     inkscape:window-maximized="1"
     inkscape:current-layer="svg1" />
  <path
     d="m 462.69493,6.1069242 c -9.63482,3.53497 -13.24558,7.2117698 -36.08483,36.7604198 -31.91865,41.29255 -38.26102,46.89977 -59.37014,52.48318 -9.04693,2.39274 -15.52355,2.81824 -57.11167,3.7526 -24.92666,0.56082 -24.52283,0.68966 -19.75901,-6.32938 3.0954,-4.56136 3.37365,-6.05763 1.12816,-6.05763 -0.86831,0 -2.82148,2.12098 -4.34049,4.71293 -4.79088,8.17427 -5.78695,8.671216 -15.68269,7.80832 -6.22869,-0.5435 -11.79262,-1.97806 -19.78717,-5.09945 -20.48441,-7.99996 -37.61682,-11.26858 -61.46622,-11.72873 -2.06251,-0.039 -10.57133,-7.78992 -35.72862,-32.5466 -35.88994,-35.31613 -39.19755,-37.85177 -49.3867,-37.85177 -7.263736,0 -9.078317,0.75029 -9.078317,3.7515 0,2.34726 13.551967,41.64334 18.900437,54.8077 1.43132,3.5209 2.41656,6.40192 2.19028,6.40192 -0.22629,0 -2.50642,-1.4064 -5.06697,-3.12571 -11.58149,-7.77584 -27.760059,-9.39879 -41.241659,-4.13694 -5.277009,2.05927 -7.472695,2.49559 -7.773682,1.54716 -0.229529,-0.72648 -1.960743,-7.65567 -3.845698,-15.39688 -4.145604,-17.02847 -7.075351,-24.36041 -9.735509,-24.36041 -2.650414,0 -3.232899,2.12639 -3.21341,11.72764 0.01624,8.04003 2.526987,22.37045 5.770714,32.93313 0.868313,2.82906 1.125993,5.14276 0.573823,5.14276 -0.553252,0 -5.012834,-1.0751 -9.908738,-2.38948 -5.044232,-1.35337 -12.222437,-2.41007 -16.559675,-2.43605 -9.881671,-0.0595 -19.3021177,4.29501 -22.6259622,10.45983 -2.0376141,3.77748 -2.0506063,4.12719 -0.2988212,7.80074 1.4984368,3.14195 6.4798729,6.918356 27.1840684,20.605676 l 25.348916,16.75781 -0.551087,6.86747 c -0.690754,8.60734 1.568812,13.53248 9.463753,20.63057 6.652021,5.98076 14.701788,9.95313 24.779425,12.23001 l 7.479191,1.689 3.311931,8.24898 c 1.82216,4.53753 3.04668,8.51531 2.72296,8.83904 -1.18338,1.18121 -13.070182,-0.004 -21.22172,-2.11665 -13.737114,-3.55987 -13.895186,-2.89943 -1.502768,6.27957 16.300913,12.07303 14.03377,11.60315 55.338218,11.45699 40.20336,-0.14401 38.86408,0.0866 49.65413,-8.5489 5.76854,-4.61765 6.19187,-5.23478 4.6458,-6.78085 -2.33968,-2.3386 -25.97254,-2.96873 -54.26528,-1.44539 -12.85689,0.69184 -22.01532,0.76762 -22.59673,0.18622 -1.01989,-1.01988 -6.23843,-13.31269 -5.82485,-13.71978 0.50995,-0.50237 48.749,6.23409 63.57421,8.87801 20.60784,3.67572 27.3638,4.42061 48.72085,5.36687 15.12511,0.67127 18.94375,1.20179 24.90177,3.45919 11.00875,4.17158 123.85489,44.11618 146.16254,51.73721 30.11815,10.28984 32.99702,10.71534 66.56567,9.83944 17.04039,-0.44498 28.5645,-1.17795 29.23251,-1.86005 0.75248,-0.7687 0.24469,-1.82649 -1.60453,-3.339 -4.01352,-3.28379 -32.44918,-17.29807 -68.94541,-33.979 -73.50895,-33.59682 -89.2317,-41.18103 -86.96131,-41.94324 1.62836,-0.54784 44.55359,-10.55077 94.19364,-21.95145 14.58919,-3.34983 29.44905,-7.00823 33.02191,-8.12772 7.74012,-2.42738 11.89763,-2.53457 20.57102,-0.53485 11.30432,2.60711 22.01533,4.08714 24.30954,3.3585 2.39706,-0.76113 2.88536,-3.77966 1.14006,-7.0418 -1.37176,-2.56271 -10.29849,-7.57554 -20.03617,-11.25234 -4.16834,-1.57314 -8.26089,-3.29462 -9.09564,-3.82405 -2.91026,-1.85031 -0.37137,-11.21662 12.6501,-46.664826 7.10566,-19.34434 14.02835,-38.5815 15.3828,-42.74984 1.35443,-4.16833 2.94273,-8.1851 3.52955,-8.92565 0.58573,-0.74164 0.83258,-2.56813 0.54676,-4.06007 -0.45365,-2.37325 -0.13859,-2.71322 2.51616,-2.71322 5.87356,0 4.23329,-2.14913 -5.29,-6.93135 C 486.52916,4.7643942 472.63073,2.4626142 462.69493,6.1069242 m 1.37176,10.0483998 c -5.03449,3.19285 -13.69814,13.40473 -32.30733,38.08023 -19.20469,25.46692 -31.36866,37.82252 -42.9718,43.65279 -5.5899,2.807406 -18.15231,6.328296 -28.04372,7.859206 l -5.41343,0.838 4.87209,0.82176 c 6.79927,1.14764 19.18627,0.15591 31.93922,-2.55623 11.84458,-2.51831 32.15035,-3.17118 47.44545,-1.52441 7.26806,0.78278 8.36483,1.16605 7.73687,2.70672 -0.40276,0.9874 -1.15414,3.2015 -1.66842,4.91971 -1.48544,4.95437 0.24253,2.29746 2.29421,-3.52955 l 1.86005,-5.2835 -4.26252,-1.27758 c -7.08619,-2.123136 -23.67618,-3.578266 -32.19582,-2.824726 l -8.02163,0.70917 5.85625,-6.38785 c 3.22207,-3.51331 8.76325,-11.21337 12.31446,-17.11293 16.91264,-28.09027 35.17321,-52.46693 44.19956,-59.00527 5.57908,-4.04275 2.71213,-4.10988 -3.63349,-0.0855 m 3.08565,4.71402 c 1.17904,1.17904 11.60422,3.06941 16.35288,2.96548 2.15238,-0.0465 3.36174,-0.31182 2.68722,-0.58899 -2.50966,-1.03071 -19.85969,-3.19608 -19.0401,-2.37649 m -351.63677,0.3248 c 0,0.76004 8.15046,13.96231 14.04784,22.75589 2.79658,4.16834 7.43048,11.96368 10.2996,17.32296 5.55959,10.38296 8.73835,14.61626 10.97843,14.61626 0.76221,0 5.89522,1.46162 11.40609,3.24805 14.32609,4.64365 15.5701,4.40654 9.38255,-1.78101 l -5.03016,-5.02907 -5.63213,1.84164 c -3.09756,1.0134 -5.75555,1.69332 -5.90713,1.51035 -0.15157,-0.18189 -0.8131,-1.36635 -1.47029,-2.63201 -1.12382,-2.16537 -0.87589,-2.34401 4.18459,-3.01528 2.95789,-0.39193 5.37878,-1.14223 5.37878,-1.66733 0,-1.35119 -15.89599,-18.50851 -19.86404,-21.43934 -2.20543,-1.63053 -3.66055,-2.07876 -4.38596,-1.35336 -1.63052,1.63053 -4.98252,1.30464 -4.98252,-0.48504 0,-0.86399 0.85208,-2.0571 1.89471,-2.65258 1.64459,-0.93869 0.53917,-2.44687 -8.36916,-11.42233 -9.16819,-9.23531 -11.9312,-11.50895 -11.9312,-9.8178 m 364.86502,18.96649 c -1.80376,3.57286 -3.03584,6.49611 -2.73811,6.49611 0.29774,0 2.01704,-2.92325 3.8208,-6.49611 1.80376,-3.57286 3.03585,-6.49611 2.73811,-6.49611 -0.29774,0 -2.01704,2.92325 -3.8208,6.49611 m -33.83392,5.5087 c -3.69954,2.13722 -2.14372,4.05358 3.7894,4.66637 19.01628,1.964 20.30035,1.97482 20.30035,0.16999 0,-2.24116 -3.18418,-3.40072 -11.90954,-4.33399 -3.8706,-0.41467 -7.76827,-0.94302 -8.66149,-1.17472 -0.8932,-0.23278 -2.47718,0.0704 -3.51872,0.67235 m 27.01842,8.05518 c -1.59805,3.25889 -2.67532,5.92446 -2.39382,5.92446 0.72865,0 6.18972,-10.95894 5.70359,-11.44507 -0.22195,-0.22195 -1.71064,2.26173 -3.30977,5.52061 m -31.73135,0.95168 c -1.03722,2.70455 0.006,3.19934 8.55538,4.05683 14.22757,1.42697 18.08194,1.18662 18.08194,-1.12925 0,-2.37 -2.25091,-2.91783 -16.48823,-4.01567 -8.26846,-0.63771 -9.53845,-0.50129 -10.14909,1.08809 m -0.42983,9.1487 c 0,1.75936 1.38692,2.14263 11.09753,3.06833 11.07046,1.05562 13.80424,0.5879 13.80424,-2.36351 0,-1.72472 -5.88223,-2.68831 -16.51095,-2.70346 -7.45754,-0.0108 -8.39082,0.21112 -8.39082,1.99864 m 0,6.3597 c 0,2.45553 3.32493,3.51006 12.6945,4.0265 8.15803,0.44931 9.93905,0.25984 10.46523,-1.11192 0.34862,-0.90946 0.19488,-1.3815 -0.34321,-1.04912 -0.5381,0.33238 -1.15198,0.0822 -1.36526,-0.5565 -0.51537,-1.54716 -21.45126,-2.82473 -21.45126,-1.30896 m -364.323674,5.39934 c -3.536051,0.85966 -12.448718,4.84827 -12.472537,5.58125 -0.01191,0.37352 1.77019,7.62102 3.960463,16.10711 L 72.55028,112.7006 h 3.394219 c 3.10839,0 3.502487,-0.41034 4.701021,-4.88724 1.574224,-5.88873 1.678162,-9.960706 0.26634,-10.451156 -0.587898,-0.20355 0.115847,-4.32858 1.624029,-9.50815 3.472172,-11.92037 3.444022,-13.07992 -0.312896,-12.92185 -1.638104,0.0692 -3.951803,0.3627 -5.142757,0.65177 m 15.849433,7.64376 c -3.382309,10.7175 -3.468924,10.52695 4.800628,10.51829 6.456053,-0.006 7.500853,-0.33563 11.364943,-3.57935 2.33969,-1.96508 4.25496,-4.32533 4.25496,-5.24345 0,-0.9192 -1.6565,-3.32818 -3.68113,-5.35279 -3.19717,-3.19718 -4.38704,-3.68114 -9.05233,-3.68114 h -5.371207 l -2.315864,7.33844 m 40.157881,-0.31072 c -5.68084,1.59371 -10.45224,3.73742 -15.18791,6.82524 -2.45878,1.60237 -2.40789,1.66192 4.21924,4.9468 3.99943,1.98239 7.48243,4.59924 8.62791,6.482026 2.41006,3.96371 5.34522,19.65508 5.34197,28.56125 -0.002,6.30664 -0.17973,6.7906 -2.73053,7.43154 -5.22288,1.31006 -20.38047,-4.24412 -26.23347,-9.61424 -3.13545,-2.87561 -3.07375,-3.7515 0.26201,-3.7515 1.48328,0 4.41302,-1.30897 6.51019,-2.9081 2.09608,-1.59912 6.48528,-4.0893 9.75283,-5.53469 7.28539,-3.22207 7.79966,-6.98548 0.95385,-6.98548 -2.13182,0 -15.56903,8.35075 -18.49335,11.49379 l -2.36785,2.54431 -6.467953,-6.46797 -6.467964,-6.46796 4.782222,-5.31815 4.781135,-5.318146 -5.689508,-0.44174 c -3.130044,-0.24252 -5.86166,-0.32156 -6.070618,-0.17539 -0.210041,0.14616 -0.758963,3.342246 -1.222352,7.103486 -0.709159,5.76314 -0.543508,7.17713 1.056701,9.00254 6.086858,6.94218 6.954089,20.44976 2.562717,39.95001 -0.505615,2.24549 -0.348625,2.91675 0.553252,2.35918 1.866549,-1.15415 6.107429,-10.05166 8.116893,-17.02849 l 1.761525,-6.11717 12.1813,3.18743 c 12.90994,3.37798 37.66447,5.68951 53.9448,5.03773 l 8.04003,-0.32156 -0.0986,-11.38877 c -0.0563,-6.45604 -0.64961,-12.41839 -1.37176,-13.76634 -0.75572,-1.41399 -3.13004,-2.89078 -5.85517,-3.64432 -2.52156,-0.69725 -7.68056,-2.1762 -11.46455,-3.28595 -3.78507,-1.11083 -7.23342,-2.01921 -7.66433,-2.01921 -0.92245,0 -3.31951,9.83186 -3.31951,13.61586 0,2.36783 0.45039,2.62334 4.60141,2.61143 2.53132,-0.006 7.1663,-0.69509 10.30175,-1.52983 7.05587,-1.87846 9.22016,-0.45256 8.70263,5.73715 -0.27934,3.34009 -0.94518,4.2268 -4.46175,5.94503 -2.55839,1.24941 -7.57771,2.23358 -13.17195,2.58328 l -9.03718,0.56299 -1.16713,-4.20623 c -2.09716,-7.56147 -2.59953,-17.24393 -1.19745,-23.0861 1.519,-6.33371 8.6171,-16.386436 14.57186,-20.639226 2.08526,-1.48869 3.80347,-3.04885 3.81972,-3.46784 0.0444,-1.12816 -7.25941,-2.99038 -14.0446,-3.57936 -3.5512,-0.30857 -8.25764,0.12884 -11.66053,1.08269 m -115.945868,2.66015 c -5.05181,1.26999 -7.4315532,3.76126 -5.646205,5.91146 2.284467,2.75219 47.979209,19.149466 49.400775,17.726806 0.208959,-0.20896 -0.854239,-4.41085 -2.362419,-9.337066 -3.118135,-10.18591 -2.961146,-10.06357 -16.099535,-12.54184 -11.767709,-2.2195 -20.926145,-2.85612 -25.292616,-1.75936 m 437.204658,5.56284 c -0.66477,1.24184 -1.00474,2.46203 -0.75464,2.71105 0.24902,0.24901 1.00906,-0.76655 1.68791,-2.25849 1.49194,-3.27404 0.76545,-3.627 -0.93327,-0.45256 m -249.23421,4.79197 c 0.42983,3.8078 -0.10394,6.342366 -2.41872,11.500276 -2.41006,5.37121 -2.69156,6.79168 -1.49519,7.54957 3.17011,2.00838 3.38881,1.70306 8.60518,-12.02539 4.19974,-11.054216 4.07306,-11.864056 -1.85572,-11.893296 -3.37581,-0.0162 -3.38448,-0.001 -2.83555,4.86884 m 13.79882,-1.63486 c -1.09784,1.77669 -5.95369,16.499046 -5.95369,18.051616 0,0.78928 0.91488,1.43456 2.03329,1.43456 1.49194,0 2.6764,-1.71931 4.44984,-6.46255 2.85288,-7.626436 3.45918,-8.215426 9.48649,-9.209326 2.53132,-0.41683 4.60141,-1.14548 4.60141,-1.61753 0,-0.94952 -8.37457,-3.28162 -11.78395,-3.28162 -1.18986,0 -2.46527,0.48829 -2.83339,1.08485 m -110.74898,4.64039 c -2.50533,2.552966 -4.55594,4.967356 -4.55594,5.363616 0,0.71132 2.34401,-1.52117 7.49651,-7.142466 4.2333,-4.61873 2.02896,-3.28487 -2.94057,1.77885 m 133.37062,2.483676 c 0.36161,0.94194 0.65719,2.64717 0.65719,3.7894 0,2.91243 2.47934,2.58437 6.58922,-0.87481 l 3.50682,-2.95031 -2.61252,-0.73082 c -1.43564,-0.40168 -4.00377,-0.778446 -5.70467,-0.837996 -2.39815,-0.0844 -2.94598,0.276086 -2.43604,1.604536 m -12.27982,2.25199 c -2.19785,2.79441 -3.99294,7.61669 -3.14845,8.4601 0.22737,0.22737 2.72187,-0.0779 5.54335,-0.67992 4.44659,-0.94844 5.12868,-1.4508 5.12868,-3.78399 0,-3.49924 -1.84165,-6.8783 -3.74934,-6.8783 -0.82826,0 -2.52699,1.29705 -3.77424,2.88211 m 22.48738,7.75852 c -2.78684,0.99499 -5.37229,2.12206 -5.74473,2.50209 -0.37353,0.3811 0.079,3.61834 1.00581,7.19444 0.92678,3.57503 1.75936,10.08522 1.84923,14.46468 l 0.16565,7.96424 0.65177,-6.86639 c 0.8196,-8.63443 3.20475,-10.99792 11.0997,-10.99792 4.31775,0 5.82917,0.52293 7.86571,2.72079 l 2.52158,2.72079 1.78318,-2.72079 c 2.12855,-3.25023 8.11905,-3.75801 10.94811,-0.92895 3.70387,3.70387 4.83961,11.29783 2.76951,18.51609 -0.96468,3.3639 -0.88022,3.51115 2.02571,3.51115 2.99795,0 3.03476,-0.0812 3.18742,-7.10675 0.25551,-11.81643 3.45701,-16.71233 10.92971,-16.71233 7.03854,0 11.13218,8.41138 9.04693,18.59078 l -1.04913,5.12219 5.99374,0.74922 c 9.36956,1.17039 54.6464,-0.33563 66.69019,-2.21843 17.28074,-2.70129 20.61325,-4.50072 21.14377,-11.41691 0.33021,-4.2961 0.0779,-5.13951 -1.74205,-5.83784 -6.97249,-2.6764 -133.76688,-21.41011 -143.11154,-21.14485 -1.63052,0.0455 -5.24452,0.89864 -8.03027,1.8947 m -71.67379,11.15816 c 0.36595,3.79048 0.97442,9.57202 1.35228,12.84714 l 0.68643,5.95477 15.05582,0.87049 c 11.76771,0.67992 15.24096,0.56949 15.90573,-0.50671 0.4688,-0.75787 1.14007,-4.55918 1.49194,-8.44927 0.35296,-3.89009 0.85532,-8.41246 1.11733,-10.04948 0.26093,-1.63702 0.052,-2.97739 -0.46447,-2.97739 -0.51752,0 -1.46488,2.97739 -2.10583,6.61629 -1.54065,8.75026 -2.67965,10.01484 -8.2165,9.13137 -2.41005,-0.38436 -5.53251,-1.45189 -6.93784,-2.37217 -2.33428,-1.52766 -2.51833,-2.27038 -2.11666,-8.57595 0.28584,-4.47799 0.013,-7.06669 -0.77412,-7.36875 -0.66801,-0.25661 -4.4639,-0.81418 -8.43736,-1.23968 l -7.22259,-0.77303 0.66584,6.89237 m 46.96582,-4.01785 -7.03746,1.22885 -0.71673,5.38203 c -0.39518,2.96006 -0.76005,8.12664 -0.81201,11.4808 -0.11044,7.0656 -0.21005,7.00064 12.59379,8.13638 7.76285,0.68859 7.82457,0.67343 8.93215,-2.24008 1.47245,-3.87168 1.49953,-13.72412 0.0325,-11.45372 -0.57708,0.89321 -1.05671,2.99579 -1.06645,4.67286 -0.0238,4.42278 -1.8882,7.23667 -4.79413,7.23667 -3.91607,0 -5.30949,-2.54431 -4.72484,-8.63117 0.64637,-6.72023 2.24874,-8.69179 7.06344,-8.69179 3.67031,0 3.771,-0.10936 3.11597,-3.3834 -0.37245,-1.86113 -0.67668,-3.80997 -0.67668,-4.33073 0,-1.15199 -2.69156,-1.01774 -11.90954,0.5933 m 178.1559,2.61685 c 0.56516,0.49912 7.36226,2.0257 15.10347,3.39097 7.74119,1.36527 21.38303,4.11962 30.31519,6.1215 8.93216,2.00082 16.9711,3.61076 17.86432,3.5772 5.39393,-0.20462 -20.13471,-6.32829 -46.8987,-11.2491 -16.4828,-3.03044 -17.91194,-3.19068 -16.38428,-1.84057 M 258.55781,134.0836 c -0.64311,2.82906 -1.30138,7.09159 -1.46054,9.4735 -0.25118,3.73742 0.0325,4.3773 2.07659,4.66746 5.18715,0.73838 8.3421,-12.4628 4.09797,-17.15083 -2.80307,-3.09864 -3.41154,-2.70996 -4.71402,3.00987 m 16.63872,0.68209 c -1.807,4.32425 -2.16104,13.19469 -0.56516,14.17993 3.30544,2.04412 7.79642,-8.96031 5.87465,-14.39647 -1.47137,-4.16184 -3.51548,-4.07847 -5.30949,0.21654 m 24.80433,1.31438 c -0.8943,2.14047 -1.47787,5.91688 -1.29815,8.39082 0.26526,3.64106 0.76871,4.56242 2.63743,4.82877 1.76045,0.25118 2.59735,-0.49587 3.51872,-3.1387 1.71389,-4.91432 1.49844,-10.2801 -0.49154,-12.27117 -2.33102,-2.32993 -2.51616,-2.23682 -4.36646,2.19028 M 242.53299,161.966 c -10.19456,2.21625 -21.50322,7.88952 -19.57279,9.81887 0.4374,0.43849 4.09147,-0.72106 8.11798,-2.57678 20.93914,-9.64782 47.34151,-8.85638 83.11018,2.49125 5.28893,1.67816 -3.85977,-2.70021 -9.88167,-4.72808 -17.67267,-5.95369 -46.61935,-8.29879 -61.7737,-5.00526 m 42.03635,19.13646 c -3.1896,0.59981 -5.38204,1.45838 -4.87209,1.90553 0.50995,0.44715 4.09472,1.94234 7.96532,3.32276 3.8706,1.37934 15.32758,6.01432 25.45935,10.29959 10.13177,4.28527 19.63233,8.1602 21.11237,8.61277 1.48003,0.45147 10.24221,3.98644 19.47209,7.85488 9.2299,3.86952 20.6793,8.46876 25.44312,10.22271 4.76381,1.75287 16.45681,6.93569 25.98445,11.51545 l 17.32297,8.32801 12.86338,0.36487 c 12.83632,0.36378 21.03983,-0.38327 19.64101,-1.78752 -0.4071,-0.40925 -7.88087,-0.98632 -16.61057,-1.28406 -13.05393,-0.44498 -15.9263,-0.83367 -16.18398,-2.18811 -0.26418,-1.38042 0.96359,-1.5818 7.60045,-1.24725 4.35239,0.21978 9.11729,0.21653 10.58758,-0.007 l 2.67315,-0.40817 -3.24805,-1.71822 c -1.78644,-0.94519 -6.90213,-2.26823 -11.3682,-2.93841 -13.06585,-1.96291 -31.67288,-5.46756 -35.18729,-6.62821 -2.42196,-0.8001 -0.7687,-0.92677 6.49612,-0.49911 5.35929,0.31506 11.08454,0.83476 12.72156,1.15306 1.73987,0.33888 2.97738,0.10174 2.97738,-0.56841 0,-0.63229 -1.09568,-1.36202 -2.43604,-1.62294 -3.14195,-0.61064 -16.05189,-2.50751 -23.00707,-3.37906 -8.98196,-1.12708 -14.61626,-2.83664 -14.61626,-4.43685 0,-1.8947 0.93004,-1.87414 8.89535,0.18946 10.41111,2.69806 8.38323,1.06537 -3.17227,-2.55513 -11.70166,-3.66489 -31.11205,-7.791 -36.65323,-7.791 -3.47759,0 -6.96384,-2.2704 -6.96384,-4.53429 0,-0.62254 1.09568,-0.89322 2.43604,-0.60198 15.36872,3.33901 31.58194,6.29041 33.03057,6.01107 3.02179,-0.5814 -11.66268,-7.14789 -18.68498,-8.35508 -21.06581,-3.6205 -56.2087,-10.9427 -57.17987,-11.91388 -2.20327,-2.20326 0.19055,-2.37757 8.61601,-0.62795 12.66634,2.62985 38.75689,6.89129 39.24951,6.41058 0.23603,-0.23169 -4.87966,-2.97306 -11.36819,-6.09335 l -11.79803,-5.67327 -15.69893,-0.21221 c -8.63443,-0.11585 -18.3093,0.28041 -21.49889,0.88131"
     stroke="none"
     fill="#000000"
     fill-rule="evenodd"
     id="path1"
     style="stroke-width:1.08269" />
</svg>
