<?xml version="1.0" encoding="UTF-8" standalone="no"?>
<svg
   width="512"
   height="512"
   viewBox="0 0 512 512"
   version="1.1"
   id="svg1"
   sodipodi:docname="image_1716705637172_6iuqc8.svg"
   inkscape:version="1.3.2 (1:1.3.2+202404261509+091e20ef0f)"
   xmlns:inkscape="http://www.inkscape.org/namespaces/inkscape"
   xmlns:sodipodi="http://sodipodi.sourceforge.net/DTD/sodipodi-0.dtd"
   xmlns="http://www.w3.org/2000/svg"
   xmlns:svg="http://www.w3.org/2000/svg">
  <defs
     id="defs1" />
  <sodipodi:namedview
     id="namedview1"
     pagecolor="#ffffff"
     bordercolor="#000000"
     borderopacity="0.25"
     inkscape:showpageshadow="2"
     inkscape:pageopacity="0.0"
     inkscape:pagecheckerboard="0"
     inkscape:deskcolor="#d1d1d1"
     inkscape:zoom="1.2089844"
     inkscape:cx="256"
     inkscape:cy="256"
     inkscape:window-width="1536"
     inkscape:window-height="796"
     inkscape:window-x="0"
     inkscape:window-y="0"
     inkscape:window-maximized="1"
     inkscape:current-layer="svg1" />
  <path
     d="M 342.05789,4.0324669 C 327.01574,7.9775445 317.26843,14.414896 310.00778,25.19721 c -1.9255,2.859677 -7.89575,9.736118 -13.26675,15.280732 -14.85396,15.333376 -23.17984,29.601515 -49.02111,84.011538 -16.1085,33.91511 -33.54435,67.20296 -41.94864,80.08662 -3.41526,5.23658 -6.99629,11.41182 -7.95624,13.72152 -1.70595,4.10413 -1.68915,4.20271 0.71688,4.31472 3.22372,0.15122 -9.11781,2.8496 -17.58371,3.8465 -6.54824,0.77065 -6.59865,0.75497 -5.88401,-1.87172 4.3136,-15.852 3.51495,-22.12918 -3.8857,-30.53794 -6.7118,-7.62469 -12.04134,-10.04863 -22.26919,-10.12929 -12.20264,-0.0964 -19.03763,3.47351 -27.29406,14.25471 -8.21611,10.72742 -11.01754,17.28462 -11.20236,26.21873 l -0.14786,7.13632 -15.121668,-0.62055 c -62.476033,-2.56397 -77.54394,-2.872 -79.054988,-1.61858 -1.523369,1.26462 -13.432526,24.69761 -14.1281226,27.80147 -0.2565087,1.14701 2.7118194,2.09688 11.4140626,3.65161 6.468716,1.15708 27.367988,4.99575 46.443699,8.53198 l 34.682397,6.4284 0.823291,3.92042 c 0.452528,2.15625 1.172766,7.95289 1.60178,12.88143 l 0.780723,8.96099 4.852376,-10.08111 c 2.66926,-5.54461 5.01031,-10.51909 5.20409,-11.05451 0.47046,-1.30605 13.27123,1.61746 13.73721,3.13747 0.20273,0.65752 0.69559,4.59923 1.09659,8.75713 0.44694,4.64179 1.23774,7.56084 2.04759,7.56084 0.85465,0 1.20637,1.67459 1.00028,4.76053 -0.17475,2.61773 0.0739,14.58961 0.55222,26.60294 l 0.87033,21.84241 4.48049,0.33156 4.4805,0.33156 -0.98795,-16.31348 -0.98795,-16.31461 4.4357,-6.42055 c 2.43962,-3.53064 6.29845,-9.79996 8.57566,-13.93099 5.76752,-10.46307 6.8014,-10.72518 5.8112,-1.47856 -1.00586,9.39112 0.69673,9.5625 5.34188,0.5399 1.73059,-3.36149 3.74681,-5.9725 4.4805,-5.80335 2.19319,0.50517 9.73499,3.91707 9.73499,4.40431 0,0.24755 -1.93669,3.3223 -4.30464,6.83052 -2.36794,3.50823 -9.46728,15.07127 -15.77694,25.69453 -6.30966,10.62326 -11.93381,19.59992 -12.49723,19.94829 -0.56342,0.34836 -1.02491,1.13692 -1.02491,1.75299 0,0.61606 0.49285,0.81545 1.09436,0.44357 1.54465,-0.95435 10.10688,1.50993 10.10688,2.90784 0,1.77315 -5.68575,11.07802 -6.76891,11.07802 -0.52533,0 -0.41445,-1.55025 0.24531,-3.4455 0.75944,-2.17752 0.80985,-3.83642 0.13666,-4.50961 -0.58583,-0.58583 -6.57065,-1.7922 -13.30036,-2.68158 -6.72971,-0.88937 -18.78896,-2.85408 -26.79785,-4.36737 -8.008875,-1.51216 -19.75002,-3.31892 -26.091037,-4.01564 -10.823755,-1.18845 -11.752338,-1.12796 -15.175437,0.98795 -3.52391,2.17753 -11.465589,11.0377 -10.636697,11.8666 0.224024,0.22402 5.189534,2.14168 11.03322,4.25983 5.844807,2.11927 20.959754,7.76246 33.589155,12.5409 12.629396,4.77733 24.124106,9.12565 25.543296,9.66219 2.56397,0.96891 2.54941,1.01819 -2.52027,8.12314 -5.38444,7.54515 -6.14276,9.66331 -3.45894,9.66331 0.90281,0 3.6684,-3.65496 6.14611,-8.12089 2.4766,-4.46706 4.51075,-7.57205 4.51859,-6.90109 0.008,0.66984 -2.80032,6.46648 -6.24021,12.88143 -5.73504,10.69494 -6.63674,11.98756 -4.31361,6.1842 0.81098,-2.02631 0.34388,-2.0812 -10.81367,-1.27694 -6.413829,0.46149 -24.465743,1.70594 -40.114992,2.76559 -27.624497,1.86836 -28.517236,2.00278 -30.64099,4.62611 -2.378024,2.93696 -7.552997,12.69996 -7.552997,14.25021 0,0.98795 28.955205,3.12627 59.086539,4.36176 9.395593,0.38533 17.08188,1.02604 17.08188,1.42256 0,0.39765 -0.45141,1.20078 -1.0025,1.7866 -2.140561,2.27273 -35.898853,69.85541 -35.113646,70.29674 2.61773,1.47184 17.378714,4.26767 18.143765,3.43654 0.49733,-0.5399 11.200118,-14.33871 23.784711,-30.66451 12.58459,-16.32581 25.37192,-32.83083 28.41642,-36.67846 l 5.53566,-6.99406 6.16068,0.54326 c 3.38837,0.29908 19.66714,1.63538 36.17552,2.9717 l 30.01484,2.4273 4.42897,-4.3248 c 2.43627,-2.37802 4.42897,-4.66756 4.42897,-5.08648 0,-0.41892 -9.19957,-4.43681 -20.44226,-8.92627 -11.2438,-4.49057 -23.59093,-9.5681 -27.43968,-11.28413 l -6.99741,-3.11955 7.4701,-7.60899 c 4.10862,-4.18479 9.96687,-10.7812 13.01809,-14.65682 5.0988,-6.4788 5.70143,-6.90893 7.45554,-5.32059 1.2859,1.16381 4.16462,1.72723 8.8221,1.72723 6.62665,0 6.91228,0.11537 6.91228,2.8003 0,8.243 6.60202,-0.56118 18.78672,-25.05381 4.0963,-8.23515 7.65269,-14.36111 7.90247,-13.61286 0.57688,1.73059 -6.98844,16.95307 -14.20652,28.58556 -3.05794,4.92854 -5.47965,8.9834 -5.38108,9.0114 0.0986,0.028 9.99038,-0.22402 21.98243,-0.56006 l 21.80321,-0.61047 3.30213,-4.92182 c 3.12739,-4.66196 3.1946,-5.00136 1.27918,-6.40152 -1.1134,-0.81433 -7.62245,-3.329 -14.46416,-5.59054 -6.84283,-2.2604 -12.75597,-4.28447 -13.14017,-4.49729 -0.38421,-0.21394 0.49845,-2.75214 1.96022,-5.63983 1.46288,-2.8888 2.65917,-7.18111 2.65917,-9.5401 0,-3.7244 -0.44805,-4.47152 -3.41414,-5.69022 -3.20692,-1.31839 -3.30884,-1.53905 -1.67794,-3.64377 l 1.73731,-2.24024 -0.75273,2.24024 c -0.74599,2.22121 -0.73144,2.22121 1.71939,0.0683 1.35871,-1.19406 7.28417,-8.37405 13.16594,-15.95505 5.88289,-7.58099 11.92373,-14.75091 13.4258,-15.93264 2.79248,-2.19544 17.12447,-4.10525 24.65393,-3.28533 l 3.49255,0.38085 -3.67401,9.50649 c -2.0207,5.22986 -3.4119,9.93326 -3.09042,10.453 0.83898,1.35647 6.38023,-4.16126 13.297,-13.23875 l 5.97361,-7.84087 9.017,-1.16717 c 4.9588,-0.6407 9.01588,-0.79304 9.01588,-0.33715 0,0.45589 -1.2915,4.91847 -2.87088,9.91646 -1.57825,4.99799 -2.68941,9.6297 -2.46875,10.29393 0.22178,0.66312 5.13017,-3.90362 10.90777,-10.14944 l 10.50452,-11.35693 6.24469,0.0202 c 3.43542,0.0104 19.60329,0.99131 35.9291,2.18088 16.32581,1.18845 36.99209,2.69278 45.92508,3.34245 8.93299,0.64967 18.39692,1.4248 21.03145,1.72163 4.50962,0.50966 5.16377,0.19938 11.22812,-5.32283 3.54183,-3.22483 8.17355,-7.17327 10.2917,-8.77505 3.80282,-2.87536 3.82075,-2.93025 1.41247,-4.2195 -1.3419,-0.71801 -14.10795,-5.84034 -28.36825,-11.38382 -14.2603,-5.54238 -32.42759,-12.84335 -40.37263,-16.22388 -7.94505,-3.37942 -14.9447,-6.145 -15.55628,-6.145 -1.9423,0 -1.19966,-1.92437 1.40912,-3.64712 16.37844,-10.81369 17.36527,-29.49399 2.21112,-41.91057 -12.34153,-10.11359 -25.04485,-9.26678 -38.47626,2.56621 -14.099,12.42106 -16.26084,14.46528 -18.01495,17.03596 -1.70147,2.4934 -1.92774,2.53036 -5.1537,0.8625 -4.51186,-2.33322 -8.05928,-7.02654 -8.02905,-10.62213 0.0303,-3.64489 2.73422,-9.63867 8.82211,-19.56185 2.5886,-4.21951 9.16933,-16.12306 14.62209,-26.45172 11.73666,-22.22887 14.39471,-26.45846 17.5221,-27.88661 1.29038,-0.58919 6.81371,-7.69861 12.27432,-15.79935 5.45948,-8.10186 12.34713,-17.59827 15.30649,-21.10538 6.98286,-8.27771 9.17045,-13.01248 12.84447,-27.799233 2.56396,-10.318582 3.01201,-14.442879 2.93136,-26.972586 l -0.0952,-14.791237 5.19961,-0.742642 c 9.68235,-1.383353 19.7758,-3.576556 16.9598,-3.685208 -3.12067,-0.120973 -17.39328,1.796679 -20.44226,2.746544 -1.71491,0.535419 -1.96022,-0.219544 -1.96022,-6.034108 0,-4.997993 -0.5679,-7.367055 -2.29065,-9.558018 -2.28282,-2.901121 -8.15898,-5.211936 -13.2858,-5.223137 -1.48191,-0.0033 -4.25422,-1.195172 -6.16067,-2.647973 C 379.32553,7.0209667 364.69223,1.7787857 355.05693,1.8952782 352.25998,1.9288772 346.4107,2.8910691 342.0579,4.0324747 m -4.40769,9.0091583 c -14.04076,3.846505 -18.48205,5.512129 -18.48205,6.929086 0,0.694478 2.11255,0.824412 5.60062,0.344998 3.08034,-0.423406 5.60286,-0.344998 5.60622,0.17474 0.019,2.913443 -7.44323,18.757596 -10.46196,22.214299 -3.10498,3.556394 -4.44689,4.185902 -10.80583,5.068561 -4.81766,0.669834 -7.75462,1.684666 -8.73137,3.017613 -0.80873,1.104443 -3.67064,8.909467 -6.36006,17.344 -4.30689,13.504216 -5.6163,16.246276 -10.97162,22.962546 -3.34469,4.194859 -8.6664,11.659364 -11.82514,16.587914 -3.15988,4.92855 -9.48857,14.25358 -14.06428,20.72229 -17.45378,24.67297 -37.60705,57.49149 -44.54062,72.53027 -2.48443,5.38891 -5.73167,12.4457 -7.21583,15.67949 -1.48416,3.23492 -2.3265,5.87169 -1.87061,5.86161 3.03553,-0.0717 20.74694,-3.40742 22.09332,-4.16014 3.0333,-1.69811 24.25741,-35.04868 38.68461,-60.78801 3.28084,-5.85264 8.41885,-14.50449 11.41855,-19.22692 l 5.45387,-8.58575 -3.72105,-5.97586 c -7.2752,-11.68402 -7.2808,-11.70754 -3.56983,-15.60781 13.32611,-14.006032 32.43991,-27.105881 60.67935,-41.586846 22.7654,-11.673932 35.52137,-19.979651 47.61087,-30.999431 9.45273,-8.617114 12.87246,-9.931019 19.71195,-7.575398 4.33039,1.492005 4.64851,1.462882 4.64851,-0.427887 0,-2.52812 -2.74094,-5.355313 -5.95906,-6.146121 -4.29456,-1.055157 -29.48166,4.853498 -42.66776,10.008308 -12.04582,4.710122 -24.07595,11.360298 -35.30295,19.51592 -2.99633,2.176401 -5.36651,3.197954 -5.98482,2.579645 -1.4528,-1.452801 2.0319,-6.364544 6.45752,-9.098767 3.72553,-2.302975 5.88849,-6.566167 10.09791,-19.902362 1.77987,-5.638704 4.1523,-9.226461 6.10019,-9.226461 0.49846,0 0.233,1.890769 -0.59142,4.200465 -0.82441,2.310815 -1.52113,6.241331 -1.54801,8.735847 -0.0493,4.52978 -0.0448,4.535381 3.86443,4.078371 3.82634,-0.445809 3.90027,-0.548861 3.25507,-4.582428 -0.92298,-5.770878 1.23775,-13.145775 4.0683,-13.886176 2.27833,-0.595906 6.59417,0.308034 15.40506,3.224837 5.35531,1.773156 11.38158,2.151758 9.70587,0.610467 -1.91764,-1.765315 -19.41286,-7.9853635 -22.03059,-7.8330268 -1.40576,0.081764 -7.59668,1.5300888 -13.75736,3.2181168 m 37.99461,1.231015 c 3.03105,1.228777 6.81147,2.076711 8.40092,1.882929 l 2.88992,-0.350599 -3.58439,-1.945655 c -1.97255,-1.069718 -5.75297,-1.916532 -8.40093,-1.882929 l -4.81654,0.06049 5.51102,2.235766 m -89.85635,46.031495 c -1.42704,1.427039 -1.82021,5.646545 -0.63736,6.830516 1.61299,1.611858 4.89383,-1.643222 4.89383,-4.853497 0,-3.485826 -1.87621,-4.357282 -4.25647,-1.977019 m 115.28091,3.290925 c -0.30243,11.859873 -9.28806,34.832492 -24.89027,63.632 -9.70139,17.90854 -8.04361,16.38406 2.88432,-2.65245 5.21978,-9.09205 11.96068,-19.88781 14.98054,-23.99082 8.58911,-11.66945 9.15141,-13.234258 9.00132,-25.045968 -0.14898,-11.695215 -1.73732,-21.295797 -1.97591,-11.942762 M 286.77529,62.151219 c -1.46961,2.745425 -1.51889,3.529512 -0.22179,3.529512 1.02043,0 2.61549,-4.610431 1.85717,-5.367634 -0.23299,-0.234106 -0.96891,0.593665 -1.63538,1.838122 m -4.98568,12.770536 c -1.3251,4.944227 -0.83784,6.440713 2.09463,6.440713 2.52029,0 2.80032,-0.44805 2.80032,-4.480497 0,-3.641523 -0.39541,-4.480496 -2.1092,-4.480496 -1.24109,0 -2.3881,1.038355 -2.78575,2.52028 m 1.25566,1.427037 c -0.53765,2.809272 0.43237,4.486097 1.8034,3.116185 1.08204,-1.08204 0.85802,-5.943377 -0.27331,-5.943377 -0.54438,0 -1.23325,1.27246 -1.53009,2.827192 m 36.6527,7.106071 c -14.10573,6.731943 -21.14122,11.249401 -32.45335,20.839897 -11.76691,9.97583 -12.34377,10.92345 -1.88405,3.09826 l 3.38501,-2.53372 3.44999,5.8941 c 4.0246,6.8742 6.62777,10.40595 7.17551,9.73164 0.21394,-0.26323 3.07698,-4.97335 6.36118,-10.46756 6.94925,-11.622412 13.91531,-20.57668 21.16587,-27.204452 2.83278,-2.590847 4.89942,-4.712362 4.59138,-4.714602 -0.30803,-0.0011 -5.61406,2.408267 -11.79154,5.356437 m -57.54861,16.748097 c -1.38559,2.59084 -0.46821,6.1069 1.4304,5.48188 1.67235,-0.54999 2.30858,-5.24219 0.90058,-6.650181 -0.7348,-0.734793 -1.52449,-0.339399 -2.33098,1.168301 m 1.10108,1.97477 c 0.0538,1.30494 0.31924,1.57041 0.67655,0.67767 0.32372,-0.80872 0.2834,-1.77539 -0.0885,-2.14727 -0.37188,-0.37188 -0.63622,0.28899 -0.58806,1.4696 m 17.35856,33.53876 c -1.08092,1.64881 -3.51046,5.84592 -5.399,9.32614 -9.14469,16.85451 -21.85922,38.4785 -29.27668,49.79287 -12.41209,18.93122 -14.71506,23.18209 -12.56106,23.18209 2.78126,0 5.85936,-3.72665 10.20544,-12.3572 2.19769,-4.36401 7.16208,-13.32388 11.0321,-19.91133 11.85428,-20.1768 25.35177,-44.20457 26.74072,-47.60191 0.7236,-1.76868 1.36767,-1.4528 5.14697,2.52028 2.37691,2.49787 4.97671,4.54211 5.7776,4.54211 0.83226,0 0.30355,-1.08205 -1.22989,-2.52029 -1.47857,-1.38671 -3.98876,-4.1971 -5.57934,-6.24581 l -2.89217,-3.72553 -1.96469,2.99858 m -6.83163,21.89505 c -4.91511,8.59584 -11.47344,20.03343 -14.57618,25.41562 -11.5552,20.05021 -12.99232,22.66907 -12.44233,22.66907 1.07756,0 37.01337,-62.6519 36.32898,-63.33742 -0.20723,-0.2061 -4.39649,6.6569 -9.31047,15.25273 m 80.15382,-6.87532 c -1.42815,2.66926 -1.48976,4.55443 -0.14897,4.55443 0.55558,0 1.53793,-1.51217 2.182,-3.36038 1.30606,-3.74569 -0.19602,-4.62723 -2.03303,-1.19405 m -3.7961,12.67532 c -0.86249,1.38671 -5.22313,9.32503 -9.6913,17.64196 -4.46818,8.31692 -9.4012,17.38992 -10.96378,20.16223 -1.56145,2.7723 -2.29962,4.53651 -1.63874,3.92043 0.66087,-0.61607 5.07416,-8.1769 9.80893,-16.80185 4.73364,-8.62496 10.07663,-18.3286 11.87443,-21.56239 3.21699,-5.79216 3.6684,-8.27436 0.61046,-3.36038 m 104.56806,6.00947 c 0,0.39988 1.04955,2.42507 2.33209,4.49954 l 2.33099,3.77258 -4.2912,-0.0493 c -2.36122,-0.0268 -6.16516,-0.71799 -8.45469,-1.53457 -3.92044,-1.40015 -4.09854,-1.36655 -3.06019,0.57351 0.74153,1.38558 3.01874,2.33209 6.96269,2.8944 5.68799,0.81097 5.74512,0.85352 1.94006,1.47632 -3.79162,0.61942 -3.72554,0.66872 1.99942,1.48417 3.31781,0.47269 5.62751,1.31614 5.2545,1.91989 -0.36627,0.59254 -1.42143,1.07643 -2.34554,1.07643 -0.95658,0 -1.34526,0.54103 -0.90394,1.25679 0.50854,0.82216 2.82496,1.01595 6.69723,0.56117 5.96242,-0.70119 9.46056,-0.11649 9.46056,1.5805 0,0.50406 -0.88266,1.12797 -1.96022,1.38336 -1.53457,0.36515 -1.27582,0.74712 1.19294,1.76307 4.31135,1.77203 7.43202,1.62642 8.20266,-0.3842 0.40885,-1.063 2.14392,-1.68691 4.7258,-1.69699 4.08062,-0.018 7.91929,-1.5581 6.76219,-2.71518 -0.33715,-0.33828 -4.70115,-1.47408 -9.69691,-2.52364 -4.99575,-1.05068 -8.85234,-2.28505 -8.56895,-2.74319 0.28339,-0.45813 2.7712,-1.17164 5.52894,-1.58498 9.06852,-1.35982 5.01703,-3.81513 -6.34103,-3.84202 -5.37659,-0.0135 -7.16543,-0.60038 -12.04132,-3.95515 -3.1498,-2.16632 -5.72608,-3.61129 -5.72608,-3.21252 M 495.05,181.99215 c 1.59842,2.4766 12.29896,11.10827 12.29896,9.92094 0,-0.30692 -3.14754,-3.25284 -6.99517,-6.54824 -3.8465,-3.29541 -6.23349,-4.81317 -5.30379,-3.3727 m -264.50383,0.4615 c -0.41893,4.41552 3.09826,13.16145 5.29259,13.16145 2.12039,0 3.15651,-7.09151 1.49536,-10.24353 -2.18425,-4.14446 -6.49671,-5.99827 -6.78795,-2.91792 m 182.71238,0.74488 c 1.91205,1.56033 2.26713,2.29849 1.12012,2.32761 -2.97616,0.0751 1.27695,2.20889 4.4805,2.2481 2.22121,0.0268 2.45307,0.25874 1.12012,1.12012 -2.54155,1.6421 3.84651,1.39455 10.64119,-0.41332 l 5.60061,-1.48977 -4.48049,-1.28255 c -2.46428,-0.70568 -5.08088,-1.28477 -5.81457,-1.28814 -0.73367,-0.003 -1.69475,-0.5903 -2.13495,-1.30383 -0.54998,-0.88825 -0.0415,-1.0966 1.61521,-0.66423 1.46625,0.3842 2.14393,0.19043 1.72275,-0.49061 -0.38756,-0.62727 -2.49003,-0.82889 -4.76164,-0.45701 -2.23801,0.36628 -4.57235,0.746 -5.18841,0.84345 -0.61607,0.0974 -2.38027,-0.18594 -3.92044,-0.62951 l -2.80031,-0.80537 2.80031,2.28506 m -190.53757,5.81232 c -1.80003,1.80003 -2.19656,3.19011 -1.67683,5.88065 0.87146,4.51634 4.80198,8.01 6.97838,6.20437 1.95574,-1.62306 1.94006,-9.89406 -0.0235,-12.48154 -1.90084,-2.50348 -2.4161,-2.4654 -5.27801,0.39652 m -86.16106,1.28366 c -8.53983,4.3192 -13.98251,15.23929 -11.84307,23.76344 1.24557,4.96326 8.17354,11.51374 14.80019,13.99258 9.75965,3.6516 18.99394,2.77231 26.60519,-2.5326 6.29286,-4.38641 9.3284,-16.31572 5.84145,-22.95806 -2.07447,-3.95292 -9.22871,-10.70391 -13.75737,-12.98224 -5.3497,-2.69053 -15.57756,-2.35226 -21.64639,0.71688 m 3.94843,1.33855 c -9.00355,3.31221 -13.89401,12.40985 -11.58991,21.56127 2.05094,8.14218 10.69045,13.78424 21.11097,13.78424 6.74427,0 11.87779,-1.98374 15.61117,-6.03187 3.76362,-4.08061 4.48833,-14.127 1.42367,-19.73098 -4.82885,-8.82658 -16.83433,-13.15922 -26.5559,-9.58266 m -21.60495,16.19027 c -2.08454,5.84817 -1.46511,21.39549 0.85242,21.39549 0.44581,0 1.69251,-1.95686 2.77119,-4.34832 1.51664,-3.36374 1.68243,-4.86694 0.73144,-6.64345 -0.67543,-1.26238 -1.62642,-4.97671 -2.11368,-8.25308 l -0.88377,-5.95794 -1.3576,3.8073 m 248.73697,1.33743 c -11.14299,5.51661 -13.60839,19.72762 -5.06183,29.18707 10.05423,11.12955 24.54639,12.8467 34.51886,4.09181 9.70362,-8.52078 6.31526,-23.83064 -7.16768,-32.38054 -6.46872,-4.10189 -15.11159,-4.45025 -22.28935,-0.89834 m 4.75941,1.90533 c -7.36818,2.52588 -10.66694,7.27297 -10.66694,15.35017 0,14.12141 15.97073,22.95359 29.25203,16.17796 13.17042,-6.71851 8.80979,-28.08711 -6.60424,-32.36822 -5.25002,-1.4584 -5.28475,-1.45616 -11.98085,0.84009 m -21.58814,11.15643 c -3.41975,6.10692 -3.3111,11.90804 0.28898,15.50812 3.51831,3.51831 5.53454,2.52028 4.46257,-2.20664 -0.43796,-1.92773 -1.11787,-6.72187 -1.51328,-10.6535 l -0.718,-7.14864 -2.52027,4.50066 m -112.8525,-1.75859 c -4.31248,0.5623 -13.13345,2.00054 -19.60217,3.19683 -6.46871,1.19629 -19.32214,3.22932 -28.56316,4.51746 -17.72148,2.471 -23.33218,4.40097 -12.79181,4.40097 11.66608,0 43.77556,-4.81206 56.75667,-8.50511 2.05655,-0.5847 2.52029,-0.27218 2.52029,1.69811 0,3.85995 -3.96749,10.73079 -16.2194,28.08936 -6.30517,8.93299 -15.36586,22.4372 -20.13423,30.00924 -4.76836,7.57203 -9.88061,14.56049 -11.36029,15.53051 -2.70062,1.76868 -3.68745,4.86583 -1.55138,4.86583 1.06412,0 3.92043,-4.19487 20.32465,-29.84571 3.48919,-5.455 11.19116,-16.72345 17.11549,-25.04037 5.92546,-8.31692 11.6325,-17.51538 12.68205,-20.44226 1.54017,-4.29344 2.61549,-5.55358 5.56702,-6.52696 2.01173,-0.66424 3.6572,-1.67235 3.6572,-2.24137 0,-0.5679 -0.12658,-0.96442 -0.28003,-0.88042 -0.15345,0.0829 -3.80842,0.61159 -8.1209,1.17389 m 84.65785,5.82241 c -0.14001,3.33348 6.4844,8.67984 17.34176,13.99707 12.0559,5.90305 23.59653,10.07663 20.09391,7.26511 -1.23215,-0.98906 -6.52025,-3.83418 -11.75122,-6.32421 -11.02987,-5.24779 -24.14316,-13.41013 -25.0023,-15.56077 -0.37299,-0.93418 -0.62614,-0.70232 -0.68215,0.6228 m 28.67181,60.33883 c -2.99745,4.01789 -5.23769,8.04922 -5.23769,9.42696 0,0.82665 2.28841,-2.33545 7.22927,-9.98702 2.76111,-4.27551 1.31391,-3.86891 -1.99158,0.56006 m -219.67423,1.53009 c -0.70904,2.82719 -0.14786,15.26169 1.17278,25.96671 l 0.59366,4.8143 2.0151,-2.57404 c 2.12599,-2.71406 8.6888,-15.36811 11.64033,-22.44281 l 1.74739,-4.18814 -6.37798,-1.78101 c -3.50824,-0.97897 -7.20129,-2.00837 -8.20827,-2.28729 -1.25902,-0.34835 -2.06551,0.43014 -2.58301,2.49228 m 37.17804,20.85671 c -3.32341,5.09097 -7.98873,12.53306 -10.36675,16.53751 -2.37914,4.00444 -6.75322,10.91224 -9.72156,15.3513 -5.71263,8.54431 -6.05539,9.29143 -4.26767,9.29143 2.40714,0 6.65914,-6.34998 27.53825,-41.12423 2.66926,-4.44465 4.40433,-8.35837 3.85547,-8.69776 -0.54775,-0.33829 -3.71434,3.54967 -7.03774,8.64175 m 75.84359,6.52808 c -4.10638,6.81595 -7.2248,12.635 -6.93021,12.92959 0.52758,0.52758 13.61735,-20.11854 14.9391,-23.56069 1.76644,-4.6037 -1.2075,-0.65527 -8.00889,10.6311 m -74.20261,0.46037 c -13.04832,20.68421 -20.56323,33.28561 -20.11743,33.73141 0.57687,0.57687 6.74875,-9.13572 26.21986,-41.26424 0.27892,-0.46261 0.20946,-0.8401 -0.15569,-0.8401 -0.36629,0 -3.04226,3.7681 -5.94674,8.37293 m 87.60713,-3.48919 c -6.6681,8.98452 -16.34149,23.11937 -15.82287,23.11937 0.48502,0 11.56192,-14.75428 17.49745,-23.30755 3.75578,-5.41243 2.36571,-5.25674 -1.67458,0.18818 m -29.60264,29.69898 c 0,1.77091 -0.75608,5.36314 -1.68018,7.982 -2.53036,7.17215 -2.0431,6.90669 2.05207,-1.12013 2.5214,-4.93974 3.37494,-7.73109 2.6547,-8.68095 -1.7698,-2.33547 -3.02659,-1.57939 -3.02659,1.81908 m -13.90857,14.55265 c -0.48277,0.78072 -0.57462,1.72162 -0.20499,2.09127 1.00252,1.00251 2.09576,-0.47157 1.55362,-2.09576 -0.37861,-1.13804 -0.64295,-1.13804 -1.34863,0.004 M 111.60356,419.0941 c -1.02379,2.1484 -1.6309,3.90587 -1.34975,3.90587 0.76728,0 4.16686,-6.85852 3.65497,-7.37042 -0.24307,-0.24307 -1.28031,1.31503 -2.30522,3.46455 m -5.03272,10.0912 c -1.34079,2.75886 -2.20216,5.01592 -1.91429,5.01592 0.75832,0 5.28474,-9.09878 4.77733,-9.60507 -0.23411,-0.23522 -1.52337,1.83029 -2.86304,4.58915"
     stroke="none"
     fill="#000000"
     fill-rule="evenodd"
     id="path1"
     style="stroke-width:1.12012" />
</svg>
